REM DIRINDEX 1\2,1\3,1\4,1\5
REM DIRNAME cjc046,folder01,folder02,folder03,folder04
TITLE ""
FILE "159.mp3" MP3
  TRACK 01 AUDIO
    TITLE "0:"
    INDEX 01 00:00:00
  TRACK 02 AUDIO
    TITLE "2:cjc046_4582"
    INDEX 01 00:00:13
  TRACK 03 AUDIO
    TITLE "0:"
    INDEX 01 00:01:22
  TRACK 04 AUDIO
    TITLE "3:cjc046_4583"
    INDEX 01 00:01:40
  TRACK 05 AUDIO
    TITLE "0:"
    INDEX 01 00:03:25
  TRACK 06 AUDIO
    TITLE "4:cjc046_4584"
    INDEX 01 00:03:43
  TRACK 07 AUDIO
    TITLE "0:"
    INDEX 01 00:04:50
  TRACK 08 AUDIO
    TITLE "2:cjc046_4585"
    INDEX 01 00:05:54
  TRACK 09 AUDIO
    TITLE "0:"
    INDEX 01 00:06:59
  TRACK 10 AUDIO
    TITLE "3:cjc046_4586"
    INDEX 01 00:07:05
  TRACK 11 AUDIO
    TITLE "0:"
    INDEX 01 00:08:24
  TRACK 12 AUDIO
    TITLE "4:cjc046_4587"
    INDEX 01 00:08:30
  TRACK 13 AUDIO
    TITLE "0:"
    INDEX 01 00:09:38
  TRACK 14 AUDIO
    TITLE "2:cjc046_4588"
    INDEX 01 00:10:45
  TRACK 15 AUDIO
    TITLE "0:"
    INDEX 01 00:11:56
  TRACK 16 AUDIO
    TITLE "3:cjc046_4589"
    INDEX 01 00:12:01
  TRACK 17 AUDIO
    TITLE "0:"
    INDEX 01 00:13:26
  TRACK 18 AUDIO
    TITLE "4:cjc046_4590"
    INDEX 01 00:13:39
  TRACK 19 AUDIO
    TITLE "0:"
    INDEX 01 00:14:53
  TRACK 20 AUDIO
    TITLE "2:cjc046_4591"
    INDEX 01 00:15:58
  TRACK 21 AUDIO
    TITLE "0:"
    INDEX 01 00:16:67
  TRACK 22 AUDIO
    TITLE "3:cjc046_4592"
    INDEX 01 00:17:12
  TRACK 23 AUDIO
    TITLE "0:"
    INDEX 01 00:18:41
  TRACK 24 AUDIO
    TITLE "4:cjc046_4593"
    INDEX 01 00:18:50
  TRACK 25 AUDIO
    TITLE "0:"
    INDEX 01 00:19:62
  TRACK 26 AUDIO
    TITLE "2:cjc046_4594"
    INDEX 01 00:20:69
  TRACK 27 AUDIO
    TITLE "0:"
    INDEX 01 00:21:70
  TRACK 28 AUDIO
    TITLE "3:cjc046_4595"
    INDEX 01 00:22:17
  TRACK 29 AUDIO
    TITLE "0:"
    INDEX 01 00:23:40
  TRACK 30 AUDIO
    TITLE "4:cjc046_4596"
    INDEX 01 00:23:53
  TRACK 31 AUDIO
    TITLE "0:"
    INDEX 01 00:24:55
  TRACK 32 AUDIO
    TITLE "2:cjc046_4597"
    INDEX 01 00:25:64
  TRACK 33 AUDIO
    TITLE "0:"
    INDEX 01 00:26:66
  TRACK 34 AUDIO
    TITLE "3:cjc046_4598"
    INDEX 01 00:27:06
  TRACK 35 AUDIO
    TITLE "0:"
    INDEX 01 00:28:02
  TRACK 36 AUDIO
    TITLE "4:cjc046_4599"
    INDEX 01 00:28:23
  TRACK 37 AUDIO
    TITLE "0:"
    INDEX 01 00:29:23
  TRACK 38 AUDIO
    TITLE "2:cjc046_4600"
    INDEX 01 00:30:34
  TRACK 39 AUDIO
    TITLE "0:"
    INDEX 01 00:31:41
  TRACK 40 AUDIO
    TITLE "3:cjc046_4601"
    INDEX 01 00:31:61
  TRACK 41 AUDIO
    TITLE "0:"
    INDEX 01 00:33:01
  TRACK 42 AUDIO
    TITLE "4:cjc046_4602"
    INDEX 01 00:33:03
  TRACK 43 AUDIO
    TITLE "0:"
    INDEX 01 00:34:10
  TRACK 44 AUDIO
    TITLE "2:cjc046_4603"
    INDEX 01 00:35:19
  TRACK 45 AUDIO
    TITLE "0:"
    INDEX 01 00:36:46
  TRACK 46 AUDIO
    TITLE "3:cjc046_4604"
    INDEX 01 00:36:68
  TRACK 47 AUDIO
    TITLE "0:"
    INDEX 01 00:38:14
  TRACK 48 AUDIO
    TITLE "4:cjc046_4605"
    INDEX 01 00:38:33
  TRACK 49 AUDIO
    TITLE "0:"
    INDEX 01 00:39:60
  TRACK 50 AUDIO
    TITLE "2:cjc046_4606"
    INDEX 01 00:40:70
  TRACK 51 AUDIO
    TITLE "0:"
    INDEX 01 00:42:08
  TRACK 52 AUDIO
    TITLE "3:cjc046_4607"
    INDEX 01 00:42:31
  TRACK 53 AUDIO
    TITLE "0:"
    INDEX 01 00:43:56
  TRACK 54 AUDIO
    TITLE "4:cjc046_4608"
    INDEX 01 00:43:62
  TRACK 55 AUDIO
    TITLE "0:"
    INDEX 01 00:45:02
  TRACK 56 AUDIO
    TITLE "2:cjc046_4609"
    INDEX 01 00:46:13
  TRACK 57 AUDIO
    TITLE "0:"
    INDEX 01 00:47:13
  TRACK 58 AUDIO
    TITLE "3:cjc046_4610"
    INDEX 01 00:47:28
  TRACK 59 AUDIO
    TITLE "0:"
    INDEX 01 00:48:57
  TRACK 60 AUDIO
    TITLE "4:cjc046_4611"
    INDEX 01 00:48:71
  TRACK 61 AUDIO
    TITLE "0:"
    INDEX 01 00:49:72
  TRACK 62 AUDIO
    TITLE "2:cjc046_4612"
    INDEX 01 00:51:07
  TRACK 63 AUDIO
    TITLE "0:"
    INDEX 01 00:52:22
  TRACK 64 AUDIO
    TITLE "3:cjc046_4613"
    INDEX 01 00:52:45
  TRACK 65 AUDIO
    TITLE "0:"
    INDEX 01 00:53:74
  TRACK 66 AUDIO
    TITLE "4:cjc046_4614"
    INDEX 01 00:54:19
  TRACK 67 AUDIO
    TITLE "0:"
    INDEX 01 00:55:34
  TRACK 68 AUDIO
    TITLE "2:cjc046_4615"
    INDEX 01 00:56:47
  TRACK 69 AUDIO
    TITLE "0:"
    INDEX 01 00:57:52
  TRACK 70 AUDIO
    TITLE "3:cjc046_4616"
    INDEX 01 00:57:72
  TRACK 71 AUDIO
    TITLE "0:"
    INDEX 01 00:59:65
  TRACK 72 AUDIO
    TITLE "4:cjc046_4617"
    INDEX 01 01:00:04
  TRACK 73 AUDIO
    TITLE "0:"
    INDEX 01 01:01:11
  TRACK 74 AUDIO
    TITLE "2:cjc046_4618"
    INDEX 01 01:02:16
  TRACK 75 AUDIO
    TITLE "0:"
    INDEX 01 01:03:26
  TRACK 76 AUDIO
    TITLE "3:cjc046_4619"
    INDEX 01 01:03:53
  TRACK 77 AUDIO
    TITLE "0:"
    INDEX 01 01:04:58
  TRACK 78 AUDIO
    TITLE "4:cjc046_4620"
    INDEX 01 01:04:68
  TRACK 79 AUDIO
    TITLE "0:"
    INDEX 01 01:06:02
  TRACK 80 AUDIO
    TITLE "2:cjc046_4621"
    INDEX 01 01:07:19
  TRACK 81 AUDIO
    TITLE "0:"
    INDEX 01 01:08:40
  TRACK 82 AUDIO
    TITLE "3:cjc046_4622"
    INDEX 01 01:08:62
  TRACK 83 AUDIO
    TITLE "0:"
    INDEX 01 01:09:52
  TRACK 84 AUDIO
    TITLE "4:cjc046_4623"
    INDEX 01 01:09:71
  TRACK 85 AUDIO
    TITLE "0:"
    INDEX 01 01:11:17
  TRACK 86 AUDIO
    TITLE "2:cjc046_4624"
    INDEX 01 01:12:28
  TRACK 87 AUDIO
    TITLE "0:"
    INDEX 01 01:13:49
  TRACK 88 AUDIO
    TITLE "3:cjc046_4625"
    INDEX 01 01:13:71
  TRACK 89 AUDIO
    TITLE "0:"
    INDEX 01 01:15:58
  TRACK 90 AUDIO
    TITLE "4:cjc046_4626"
    INDEX 01 01:16:01
  TRACK 91 AUDIO
    TITLE "0:"
    INDEX 01 01:17:20
  TRACK 92 AUDIO
    TITLE "2:cjc046_4627"
    INDEX 01 01:18:33
  TRACK 93 AUDIO
    TITLE "0:"
    INDEX 01 01:19:40
  TRACK 94 AUDIO
    TITLE "3:cjc046_4628"
    INDEX 01 01:19:64
  TRACK 95 AUDIO
    TITLE "0:"
    INDEX 01 01:21:02
  TRACK 96 AUDIO
    TITLE "4:cjc046_4629"
    INDEX 01 01:21:21
  TRACK 97 AUDIO
    TITLE "0:"
    INDEX 01 01:22:31
  TRACK 98 AUDIO
    TITLE "2:cjc046_4630"
    INDEX 01 01:23:44
  TRACK 99 AUDIO
    TITLE "0:"
    INDEX 01 01:24:53
  TRACK 100 AUDIO
    TITLE "3:cjc046_4631"
    INDEX 01 01:24:73
  TRACK 101 AUDIO
    TITLE "0:"
    INDEX 01 01:26:25
  TRACK 102 AUDIO
    TITLE "4:cjc046_4632"
    INDEX 01 01:26:40
  TRACK 103 AUDIO
    TITLE "0:"
    INDEX 01 01:27:51
